<svg xmlns="http://www.w3.org/2000/svg" xmlns:xlink="http://www.w3.org/1999/xlink" viewBox="0 0 217.61 64.05"><defs><style>.cls-1{fill:none;}.cls-2{fill:#a7a9ac;}.cls-3{clip-path:url(#clip-path);}.cls-4{fill:#fff;}</style><clipPath id="clip-path"><polyline class="cls-1" points="214.54 59.38 214.54 4.46 3.08 4.46 3.08 59.38"/></clipPath></defs><g id="Layer_2" data-name="Layer 2"><g id="App_Store" data-name="App Store"><rect x="0.81" y="0.81" width="216" height="62.44" rx="7.38"/><path class="cls-2" d="M209.43,64.05H8.19A8.19,8.19,0,0,1,0,55.86V8.19A8.19,8.19,0,0,1,8.19,0H209.43a8.19,8.19,0,0,1,8.18,8.19V55.86A8.19,8.19,0,0,1,209.43,64.05ZM8.19,1.62A6.57,6.57,0,0,0,1.62,8.19V55.86a6.58,6.58,0,0,0,6.57,6.58H209.43A6.58,6.58,0,0,0,216,55.86V8.19a6.57,6.57,0,0,0-6.57-6.57Z"/><g id="Layer_2-2" data-name="Layer 2"><g id="图层_1" data-name="图层 1"><g class="cls-3"><path class="cls-4" d="M30.73,14.84a5.24,5.24,0,0,1,0,1.12c-1.56.69-2.14,1.18-2.14,3.52v1.44l-1.1.21V19.48c0-3.46,1.33-4,3.14-4.64m3.13-.73a5.77,5.77,0,0,1,.17,1.08c2.83-.41,2.79.77,2.79,3.19v.91l1.05-.22v-.69c0-3.77-.58-4.78-4-4.29m-11,8v-5c0-3.09,1.54-4,4.51-4.72,4.42-1.05,4.69,1.8,4.69,3.63v4.29L33,20.1v-4c0-3.43-1.08-6-6-4.89-2.64.6-5.34,1.29-5.34,5.79v5.28ZM35.6,35.18H27.36v-6l8.33-1.22Zm0,8.59-8.32-1.23V36.11h8.41Zm-9.16-8.59H19.92v-5l6.61-.95Zm0,7.26-6.61-.95V36h6.61ZM43.31,19.29l-29.78,6V46.92l29.78,5.94,5.94-2.14V21.45Z"/><path class="cls-4" d="M69.46,20.1A5.81,5.81,0,0,1,68.73,23,5,5,0,0,1,66.58,25a6.75,6.75,0,0,1-3.09.69H60.71V14.8h3c3.84,0,5.75,1.76,5.75,5.3m-1.33,0c0-2.79-1.48-4.16-4.44-4.16H62v8.58H63.6A4.68,4.68,0,0,0,67,23.38a4.31,4.31,0,0,0,1.18-3.26m10.36,1.65a4.16,4.16,0,0,1-1,3,4,4,0,0,1-5.56,0,4.07,4.07,0,0,1-1-2.9,4.29,4.29,0,0,1,1.05-3,3.81,3.81,0,0,1,2.92-1.12,3.53,3.53,0,0,1,2.71,1.07,4.3,4.3,0,0,1,1,3m-1.26,0a3.43,3.43,0,0,0-.65-2.14,2.27,2.27,0,0,0-1.86-.79,2.38,2.38,0,0,0-1.89.81,3.33,3.33,0,0,0-.71,2.15,3.1,3.1,0,0,0,.71,2.14,2.39,2.39,0,0,0,1.89.77,2.28,2.28,0,0,0,1.86-.77,3.37,3.37,0,0,0,.65-2.14m13-3.91-2.34,7.79H86.6L85,20.12a4.45,4.45,0,0,1,0-.73h0a2.5,2.5,0,0,1-.15.71L83.1,25.68H81.86L79.5,17.91h1.31l1.46,5.86a5.52,5.52,0,0,1,.1.71h0a2.42,2.42,0,0,1,.2-.71l1.8-5.84h1.14l1.61,5.84c0,.24,0,.47,0,.71h0a2.12,2.12,0,0,1,0-.71l1.78-5.86Zm7.89,7.79H96.88V21.24c0-1.63-.6-2.47-1.8-2.47a2,2,0,0,0-1.55.71,2.57,2.57,0,0,0-.62,1.76v4.44H91.66V17.91h1.25V19.2h0a2.8,2.8,0,0,1,2.55-1.48,2.32,2.32,0,0,1,2,.84,3.61,3.61,0,0,1,.67,2.36Zm3.59,0h-1.25V14.18h1.31Zm9.59-3.91a4.16,4.16,0,0,1-1,3,3.72,3.72,0,0,1-2.83,1.13,3.6,3.6,0,0,1-2.75-1.09,4.07,4.07,0,0,1-1-2.9,4.3,4.3,0,0,1,1.06-3,3.77,3.77,0,0,1,2.91-1.12,3.48,3.48,0,0,1,2.71,1.07,4.31,4.31,0,0,1,1,3m-1.26,0a3.43,3.43,0,0,0-.67-2.14,2.25,2.25,0,0,0-1.84-.79,2.36,2.36,0,0,0-1.91.81A3.39,3.39,0,0,0,105,21.8a3.25,3.25,0,0,0,.69,2.14,2.45,2.45,0,0,0,1.91.77,2.23,2.23,0,0,0,1.84-.77,3.37,3.37,0,0,0,.67-2.14m8.58,3.86h-1.24V24.48h0a2.84,2.84,0,0,1-4.19.79,2.12,2.12,0,0,1-.79-1.65c0-1.46.86-2.3,2.57-2.53l2.32-.35c0-1.3-.54-2-1.59-2a3.78,3.78,0,0,0-2.53,1V18.45a3.59,3.59,0,0,1,1.16-.49,5.33,5.33,0,0,1,1.48-.24c1.82,0,2.72,1,2.72,2.92Zm-1.24-3.93-1.87.26a2.71,2.71,0,0,0-1.35.47,1.29,1.29,0,0,0-.39,1,1.19,1.19,0,0,0,.41.94,1.59,1.59,0,0,0,1.07.35,2,2,0,0,0,1.52-.65,2.27,2.27,0,0,0,.61-1.63Zm10.16,3.93H126.4V24.37h0a2.91,2.91,0,0,1-2.68,1.5,2.86,2.86,0,0,1-2.34-1.05A4.3,4.3,0,0,1,120.5,22a4.77,4.77,0,0,1,1-3.11,3.18,3.18,0,0,1,2.59-1.16A2.48,2.48,0,0,1,126.4,19h0V14.18h1.24Zm-1.24-3.52V21a2.17,2.17,0,0,0-.64-1.61,2.28,2.28,0,0,0-3.35.2,3.66,3.66,0,0,0-.64,2.31,3.19,3.19,0,0,0,.62,2.15,2,2,0,0,0,1.67.77,2.16,2.16,0,0,0,1.68-.73,2.75,2.75,0,0,0,.66-1.91m11.22-7a1.54,1.54,0,0,0-.81-.22c-.88,0-1.31.56-1.31,1.66v1.2h1.82v1.05H135.5v6.8h-1.25V19h-1.33V17.91h1.33V16.65a2.67,2.67,0,0,1,.69-1.91,2.34,2.34,0,0,1,1.78-.73,2.49,2.49,0,0,1,.9.13Zm5.09,3.9a1.45,1.45,0,0,0-1-.25,1.53,1.53,0,0,0-1.37.85,3.59,3.59,0,0,0-.52,2v4h-1.24V17.91h1.24v1.57h0a2.79,2.79,0,0,1,.8-1.27,1.9,1.9,0,0,1,1.22-.47,2.36,2.36,0,0,1,.75,0Zm8.21,2.6a4.08,4.08,0,0,1-1,3,4,4,0,0,1-5.58,0,4,4,0,0,1-1-2.89,4.32,4.32,0,0,1,1.08-3.05,3.77,3.77,0,0,1,2.89-1.12,3.49,3.49,0,0,1,2.71,1.08,4.3,4.3,0,0,1,1,3m-1.26,0a3.42,3.42,0,0,0-.69-2.21,2.29,2.29,0,0,0-1.84-.8,2.46,2.46,0,0,0-1.91.82,3.39,3.39,0,0,0-.69,2.15,3.15,3.15,0,0,0,.71,2.14,2.36,2.36,0,0,0,1.89.77A2.32,2.32,0,0,0,149,24a3.31,3.31,0,0,0,.64-2.15M164,25.68h-1.24V21.22a3.46,3.46,0,0,0-.39-1.87,1.53,1.53,0,0,0-1.35-.58,1.69,1.69,0,0,0-1.35.73,2.79,2.79,0,0,0-.56,1.74v4.44h-1.25V21.07c0-1.53-.58-2.3-1.76-2.3a1.59,1.59,0,0,0-1.35.71,2.77,2.77,0,0,0-.53,1.76v4.44H153V17.91h1.25v1.23h0a2.64,2.64,0,0,1,2.42-1.42,2.33,2.33,0,0,1,1.35.43,2.1,2.1,0,0,1,.84,1.18,2.78,2.78,0,0,1,2.6-1.61c1.69,0,2.55,1.05,2.55,3.17Z"/><path class="cls-4" d="M80.64,32.67,76,48.89H73.88L70.55,37a7.75,7.75,0,0,1-.25-1.65h0A11.39,11.39,0,0,1,70,37L66.63,48.89H64.48L59.74,32.67h2.15l3.24,12.55a11,11,0,0,1,.27,1.61h0a7,7,0,0,1,.35-1.61l3.58-12.44h1.85l3.45,12.44a11.14,11.14,0,0,1,.28,1.51h0a10.11,10.11,0,0,1,.3-1.55l3.32-12.49Zm3.67.82a1.22,1.22,0,0,1-.37.88,1.24,1.24,0,0,1-.86.34,1.16,1.16,0,0,1-.86-.34,1.26,1.26,0,0,1,0-1.72,1.18,1.18,0,0,1,.86-.36,1.25,1.25,0,0,1,.88.36,1.15,1.15,0,0,1,.35.84M84,48.89H82.14V37.31H84Zm12.43,0H94.56v-6.6c0-2.45-.9-3.69-2.7-3.69a3,3,0,0,0-2.3,1,3.89,3.89,0,0,0-.92,2.64v6.6H86.75V37.31H88.6v1.93h0a4.11,4.11,0,0,1,3.79-2.15,3.47,3.47,0,0,1,2.9,1.25,5.45,5.45,0,0,1,1,3.52Zm12.87,0h-1.87v-2h0a4.63,4.63,0,0,1-6.35,1.59,4.5,4.5,0,0,1-1.11-.93,6.42,6.42,0,0,1-1.31-4.29,6.94,6.94,0,0,1,1.41-4.5A4.71,4.71,0,0,1,103.92,37a3.72,3.72,0,0,1,3.47,1.87h0V31.75h1.87Zm-1.87-5.25v-1.7a3.21,3.21,0,0,0-.94-2.38,3.13,3.13,0,0,0-2.32-1,3.22,3.22,0,0,0-2.66,1.24,5.39,5.39,0,0,0-1,3.43,4.9,4.9,0,0,0,.93,3.16,3,3,0,0,0,2.49,1.15,3.11,3.11,0,0,0,2.48-1.11,4,4,0,0,0,1-2.83M123,43.08a6.19,6.19,0,0,1-1.57,4.42,5.68,5.68,0,0,1-9.82-4.29,6.27,6.27,0,0,1,1.56-4.42,5.69,5.69,0,0,1,4.29-1.68,5.24,5.24,0,0,1,4,1.61,6.47,6.47,0,0,1,1.5,4.36m-1.89,0a5.08,5.08,0,0,0-1-3.35,3.43,3.43,0,0,0-2.76-1.18,3.56,3.56,0,0,0-2.81,1.2,4.91,4.91,0,0,0-1.08,3.33,4.66,4.66,0,0,0,1.05,3.24,3.55,3.55,0,0,0,2.82,1.18,3.35,3.35,0,0,0,2.76-1.16,5,5,0,0,0,1-3.26m18.77-5.82L136.4,48.85h-1.93l-2.38-8.3a4.71,4.71,0,0,1-.18-1h0a4.14,4.14,0,0,1-.23,1l-2.58,8.32h-1.86l-3.5-11.59h2L128.07,46a5.84,5.84,0,0,1,.18,1h0a3.84,3.84,0,0,1,.21-1.06l2.66-8.58h1.7l2.4,8.73a6.09,6.09,0,0,1,.15,1h0a4.07,4.07,0,0,1,.19-1l2.36-8.73Zm7.92,8.59a3,3,0,0,1-1.16,2.44,4.77,4.77,0,0,1-3.09,1,5.76,5.76,0,0,1-2.87-.71v-2a4.59,4.59,0,0,0,3,1.12c1.48,0,2.15-.54,2.15-1.61a1.38,1.38,0,0,0-.43-1.07,8.29,8.29,0,0,0-2-1.12,5.59,5.59,0,0,1-2.14-1.41,3,3,0,0,1-.64-2,3,3,0,0,1,1.15-2.4,4.51,4.51,0,0,1,2.9-1,5.56,5.56,0,0,1,2.47.54v1.86a4.24,4.24,0,0,0-2.47-.83,2.21,2.21,0,0,0-1.48.47,1.41,1.41,0,0,0-.56,1.16,1.62,1.62,0,0,0,.43,1.18,6,6,0,0,0,1.78,1,6.53,6.53,0,0,1,2.32,1.48,2.89,2.89,0,0,1,.66,1.93"/><path class="cls-4" d="M164.25,44.8A3.88,3.88,0,0,1,162.79,48a6,6,0,0,1-3.93,1.18,8.19,8.19,0,0,1-2.14-.3,4.85,4.85,0,0,1-1.61-.62V46a5.66,5.66,0,0,0,1.8,1,6.28,6.28,0,0,0,2.14.43c2.15,0,3.12-.82,3.12-2.45a2.5,2.5,0,0,0-.67-1.74,12,12,0,0,0-2.72-1.91A10.17,10.17,0,0,1,156,39.22a3.9,3.9,0,0,1-.73-2.58,3.86,3.86,0,0,1,1.43-3.13,5.6,5.6,0,0,1,3.72-1.16,6.64,6.64,0,0,1,3.17.58v2.15a5.09,5.09,0,0,0-3.28-1,3.51,3.51,0,0,0-2.15.66,2.16,2.16,0,0,0-.86,1.79,2.7,2.7,0,0,0,.26,1.28,3.47,3.47,0,0,0,.86,1,17.23,17.23,0,0,0,2.15,1.29,10.64,10.64,0,0,1,3,2.25,3.86,3.86,0,0,1,.86,2.44m7.66,4a3.52,3.52,0,0,1-1.74.39c-2,0-3-1.14-3-3.41V38.79h-2V37.22h2V34.5l1.87-.6v3.43h2.92v1.46H169v6.54a2.71,2.71,0,0,0,.38,1.65,1.68,1.68,0,0,0,1.34.5,1.94,1.94,0,0,0,1.2-.39ZM184.93,43a6.25,6.25,0,0,1-1.57,4.42,6.13,6.13,0,0,1-8.39.06,6,6,0,0,1-1.54-4.29,6.28,6.28,0,0,1,1.44-4.44,5.69,5.69,0,0,1,4.29-1.68,5.22,5.22,0,0,1,4,1.61,6.42,6.42,0,0,1,1.5,4.36m-1.91,0a5.13,5.13,0,0,0-1-3.35A3.38,3.38,0,0,0,179,38.6a3.6,3.6,0,0,0-2.83,1.2,5,5,0,0,0-1,3.28,4.61,4.61,0,0,0,1.05,3.24A3.51,3.51,0,0,0,179,47.58a3.4,3.4,0,0,0,2.77-1.15,5,5,0,0,0,1-3.35m9.89-3.95a2.4,2.4,0,0,0-1.41-.36,2.29,2.29,0,0,0-2,1.16,5.42,5.42,0,0,0-.77,3.15V49h-1.87V37.39h1.87v2.39h0a4,4,0,0,1,1.18-1.89,2.74,2.74,0,0,1,1.85-.71,2.81,2.81,0,0,1,1.11.17Zm11.16,4.29h-8.17a4.3,4.3,0,0,0,1.05,3,3.62,3.62,0,0,0,2.72,1A5.72,5.72,0,0,0,203,46.19v1.74A6.66,6.66,0,0,1,199,49a4.82,4.82,0,0,1-3.86-1.61,6.4,6.4,0,0,1-1.39-4.35,7.21,7.21,0,0,1,.68-3.13,5.36,5.36,0,0,1,1.91-2.15,5.08,5.08,0,0,1,2.73-.77,4.48,4.48,0,0,1,3.52,1.46,6.14,6.14,0,0,1,1.24,4.1Zm-1.89-1.56a3.82,3.82,0,0,0-.77-2.49,2.62,2.62,0,0,0-2.14-.9,3,3,0,0,0-2.15.94,4.52,4.52,0,0,0-1.16,2.45Z"/></g></g></g></g></g></svg>